<svg preserveAspectRatio="xMidYMid meet" data-bbox="20 40.5 160 119" viewBox="20 40.5 160 119" xmlns="http://www.w3.org/2000/svg" data-type="color" role="presentation" aria-hidden="true" aria-label=""><defs><style>svg [data-color="1"] {fill: #FFD300;}</style></defs>
    <g>
        <path d="M41.924 114.371a2.37 2.37 0 0 1-2.373-2.368V56.91H27.593v55.093a2.37 2.37 0 0 1-2.373 2.368 2.37 2.37 0 0 1-2.373-2.368V54.542a2.37 2.37 0 0 1 2.373-2.368h16.704a2.37 2.37 0 0 1 2.373 2.368v57.461a2.37 2.37 0 0 1-2.373 2.368z" fill="#474747" data-color="1"></path>
        <path d="M174.78 114.371a2.37 2.37 0 0 1-2.373-2.368V56.91h-11.959v55.093a2.37 2.37 0 0 1-2.373 2.368 2.37 2.37 0 0 1-2.373-2.368V54.542a2.37 2.37 0 0 1 2.373-2.368h16.705a2.37 2.37 0 0 1 2.373 2.368v57.461a2.37 2.37 0 0 1-2.373 2.368z" fill="#474747" data-color="1"></path>
        <path d="M37.5 56.91h-7.856a2.37 2.37 0 0 1-2.373-2.368V44.373a2.37 2.37 0 0 1 2.373-2.368H37.5a2.37 2.37 0 0 1 2.373 2.368v10.169A2.37 2.37 0 0 1 37.5 56.91zm-5.483-4.736h3.11V46.74h-3.11v5.434z" fill="#474747" data-color="1"></path>
        <path d="M170.355 56.91H162.5a2.37 2.37 0 0 1-2.373-2.368V44.373a2.37 2.37 0 0 1 2.373-2.368h7.855a2.37 2.37 0 0 1 2.373 2.368v10.169a2.37 2.37 0 0 1-2.373 2.368zm-5.482-4.736h3.11V46.74h-3.11v5.434z" fill="#474747" data-color="1"></path>
        <path d="M158.076 68.56a2.37 2.37 0 0 1-1.795-.818c-.047-.054-5.035-5.709-14.44-11.281-8.645-5.121-22.916-11.226-41.812-11.226-36.302 0-56.118 22.284-56.313 22.509a2.377 2.377 0 0 1-3.347.235 2.364 2.364 0 0 1-.235-3.34c.217-.25 5.44-6.186 15.452-12.143C64.784 47.024 79.961 40.5 100.029 40.5c20.069 0 35.231 6.524 44.416 11.997 9.999 5.958 15.207 11.895 15.424 12.145.858.988.75 2.484-.24 3.34a2.367 2.367 0 0 1-1.553.578z" fill="#474747" data-color="1"></path>
        <path d="M158.074 105.485a2.374 2.374 0 0 1-2.281-1.72c-.036-.127-3.778-12.978-12.606-25.611-5.123-7.333-10.937-13.163-17.278-17.326-7.842-5.149-16.549-7.759-25.881-7.759s-18.043 2.611-25.891 7.76c-6.346 4.164-12.166 9.994-17.298 17.327-8.841 12.634-12.598 25.485-12.635 25.613a2.374 2.374 0 0 1-2.934 1.623 2.367 2.367 0 0 1-1.628-2.926c.158-.55 3.969-13.635 13.228-26.91 5.48-7.856 11.736-14.128 18.595-18.642 8.652-5.694 18.262-8.581 28.563-8.581 10.301 0 19.908 2.887 28.554 8.582 6.854 4.514 13.104 10.787 18.575 18.643 9.245 13.275 13.042 26.36 13.199 26.911a2.368 2.368 0 0 1-2.282 3.016z" fill="#474747" data-color="1"></path>
        <path d="M158.075 86.598H41.924a2.37 2.37 0 0 1-2.373-2.368 2.37 2.37 0 0 1 2.373-2.368h116.151a2.37 2.37 0 0 1 2.373 2.368 2.37 2.37 0 0 1-2.373 2.368z" fill="#474747" data-color="1"></path>
        <path d="M51.528 86.598a2.37 2.37 0 0 1-2.373-2.368V58.173a2.37 2.37 0 0 1 2.373-2.368 2.37 2.37 0 0 1 2.373 2.368V84.23a2.37 2.37 0 0 1-2.373 2.368z" fill="#474747" data-color="1"></path>
        <path d="M67.74 86.598a2.37 2.37 0 0 1-2.373-2.368V49.458c0-1.308 1.062-2.368 2.373-2.368s2.373 1.06 2.373 2.368V84.23a2.371 2.371 0 0 1-2.373 2.368z" fill="#474747" data-color="1"></path>
        <path d="M83.951 86.598a2.37 2.37 0 0 1-2.373-2.368V44.536a2.37 2.37 0 0 1 2.373-2.368 2.37 2.37 0 0 1 2.373 2.368V84.23a2.37 2.37 0 0 1-2.373 2.368z" fill="#474747" data-color="1"></path>
        <path d="M100.163 86.598a2.37 2.37 0 0 1-2.373-2.368V42.868a2.37 2.37 0 0 1 2.373-2.368 2.37 2.37 0 0 1 2.373 2.368V84.23a2.371 2.371 0 0 1-2.373 2.368z" fill="#474747" data-color="1"></path>
        <path d="M116.374 86.598a2.37 2.37 0 0 1-2.373-2.368V44.384a2.37 2.37 0 0 1 2.373-2.368 2.37 2.37 0 0 1 2.373 2.368V84.23a2.37 2.37 0 0 1-2.373 2.368z" fill="#474747" data-color="1"></path>
        <path d="M132.586 86.598a2.37 2.37 0 0 1-2.373-2.368V49.458c0-1.308 1.062-2.368 2.373-2.368s2.373 1.06 2.373 2.368V84.23a2.371 2.371 0 0 1-2.373 2.368z" fill="#474747" data-color="1"></path>
        <path d="M148.797 86.598a2.37 2.37 0 0 1-2.373-2.368V58.173a2.37 2.37 0 0 1 2.373-2.368 2.37 2.37 0 0 1 2.373 2.368V84.23a2.37 2.37 0 0 1-2.373 2.368z" fill="#474747" data-color="1"></path>
        <path d="M177.627 122.895H22.373A2.37 2.37 0 0 1 20 120.527a2.37 2.37 0 0 1 2.373-2.368h155.254a2.37 2.37 0 0 1 2.373 2.368 2.37 2.37 0 0 1-2.373 2.368z" fill="#474747" data-color="1"></path>
        <path d="M167.219 135.096h-3.043c-1.311 0-2.373-1.06-2.373-2.368s1.062-2.368 2.373-2.368h3.043c1.311 0 2.373 1.06 2.373 2.368s-1.063 2.368-2.373 2.368z" fill="#474747" data-color="1"></path>
        <path d="M149.844 135.096h-13.729c-1.311 0-2.373-1.06-2.373-2.368s1.062-2.368 2.373-2.368h13.729c1.311 0 2.373 1.06 2.373 2.368s-1.063 2.368-2.373 2.368z" fill="#474747" data-color="1"></path>
        <path d="M124.671 135.096H77.265c-1.311 0-2.373-1.06-2.373-2.368s1.062-2.368 2.373-2.368h47.406c1.311 0 2.373 1.06 2.373 2.368s-1.063 2.368-2.373 2.368z" fill="#474747" data-color="1"></path>
        <path d="M65.138 135.096H32.781c-1.311 0-2.373-1.06-2.373-2.368s1.062-2.368 2.373-2.368h32.356c1.311 0 2.373 1.06 2.373 2.368s-1.062 2.368-2.372 2.368z" fill="#474747" data-color="1"></path>
        <path d="M136.115 147.298h-13.833a2.37 2.37 0 0 1-2.373-2.368 2.37 2.37 0 0 1 2.373-2.368h13.833a2.37 2.37 0 0 1 2.373 2.368 2.371 2.371 0 0 1-2.373 2.368z" fill="#474747" data-color="1"></path>
        <path d="M112.911 147.298h-2.572a2.37 2.37 0 0 1-2.373-2.368 2.37 2.37 0 0 1 2.373-2.368h2.572a2.37 2.37 0 0 1 2.373 2.368 2.37 2.37 0 0 1-2.373 2.368z" fill="#474747" data-color="1"></path>
        <path d="M102.254 147.298H88.657a2.37 2.37 0 0 1-2.373-2.368 2.37 2.37 0 0 1 2.373-2.368h13.597a2.37 2.37 0 0 1 2.373 2.368 2.37 2.37 0 0 1-2.373 2.368z" fill="#474747" data-color="1"></path>
        <path d="M76.346 147.298H63.885a2.37 2.37 0 0 1-2.373-2.368 2.37 2.37 0 0 1 2.373-2.368h12.461a2.37 2.37 0 0 1 2.373 2.368 2.37 2.37 0 0 1-2.373 2.368z" fill="#474747" data-color="1"></path>
        <path d="M119.215 159.5h-2.841a2.37 2.37 0 0 1-2.373-2.368 2.37 2.37 0 0 1 2.373-2.368h2.841a2.37 2.37 0 0 1 2.373 2.368 2.37 2.37 0 0 1-2.373 2.368z" fill="#474747" data-color="1"></path>
        <path d="M106.848 159.5H89.576a2.37 2.37 0 0 1-2.373-2.368 2.37 2.37 0 0 1 2.373-2.368h17.272a2.37 2.37 0 0 1 2.373 2.368 2.371 2.371 0 0 1-2.373 2.368z" fill="#474747" data-color="1"></path>
        <path d="M82.41 159.5h-1.625a2.37 2.37 0 0 1-2.373-2.368 2.37 2.37 0 0 1 2.373-2.368h1.625a2.37 2.37 0 0 1 2.373 2.368 2.371 2.371 0 0 1-2.373 2.368z" fill="#474747" data-color="1"></path>
    </g>
</svg>