<svg preserveAspectRatio="xMidYMid meet" data-bbox="57.5 15 85 170.2" viewBox="57.5 15 85 170.2" xmlns="http://www.w3.org/2000/svg" data-type="color" role="presentation" aria-hidden="true" aria-label=""><defs><style>svg [data-color="1"] {fill: #FFD300;}</style></defs>
    <g>
        <path d="M97.5 15h6v28h-6V15z" fill="#e26f4b" data-color="1" style="--darkreader-inline-fill: #e47755;" data-darkreader-inline-fill=""></path>
        <path d="M78.9 46.4l-7.3-12.7 5.5-3.1 7.2 12.6-5.4 3.2z" fill="#e26f4b" data-color="1" style="--darkreader-inline-fill: #e47755;" data-darkreader-inline-fill=""></path>
        <path d="M105.1 66.4v6.3c9.3 0 17.3 7.5 17.3 17.2 0 .1-.1 0-.1 0h6.3c.2-12.8-10.2-23.5-23.3-23.8l-.2.3z" fill="#e26f4b" data-color="1" style="--darkreader-inline-fill: #e47755;" data-darkreader-inline-fill=""></path>
        <path d="M100 50.8c-23.5 0-42.5 19-42.5 42.4 0 6.8 1.6 13.5 4.8 19.6 2.1 4.8 4.9 9.5 7.9 13.9 3.7 5.7 6.9 10.5 6.9 15.9v28.1c0 1.7 1.4 1.9 3.1 1.9h6.4c.5 5.9 6.3 12.6 13.4 12.6s12.9-6.6 13.4-12.6h6.4c1.8 0 3.1 0 3.1-1.9v-28.1c0-5.4 3.2-10.3 7-15.9 3.1-4.5 5.9-9.3 8-14.3 3-5.9 4.6-12.5 4.6-19.1 0-23.5-19-42.5-42.5-42.5zm0 127.9c-3.7 0-6.6-3.7-7.1-6.3h14.2c-.5 2.6-3.4 6.3-7.1 6.3zm17-12.2H83.9V158H117v8.5zm0-10.2H83.9v-6H117v6zm0-7.7H83.9v-5.1H117v5.1zm15.2-40h-.8v1.2c-1.7 4.8-4.2 9.1-7.1 13.3-4 6-7.1 11.1-7.4 18.7H83.6c-.3-7.6-3.8-12.7-7.7-18.7-2.6-4-5.5-8-7.2-12.9v-.3c-2.5-5.1-4.4-10.9-4.4-16.7 0-20 16.1-36.1 36-36.1s36 15.6 36 35.6c-.1 5.8-1.5 11.6-4.1 15.9z" fill="#e26f4b" data-color="1" style="--darkreader-inline-fill: #983718;" data-darkreader-inline-fill=""></path>
        <path d="M121.5 46.4l-5.4-3.1 7.2-12.6 5.4 3.1-7.2 12.6z" fill="#e26f4b" data-color="1" style="--darkreader-inline-fill: #e47755;" data-darkreader-inline-fill=""></path>
    </g>
</svg>